<svg xmlns="http://www.w3.org/2000/svg" version="1.1" xmlns:xlink="http://www.w3.org/1999/xlink" xmlns:svgjs="http://svgjs.dev/svgjs" width="1000" height="1000" viewBox="0 0 1000 1000"><rect width="1000" height="1000" fill="#0023ff"></rect><g transform="matrix(0.7,0,0,0.7,149.57575757575756,422.0333309526269)"><svg viewBox="0 0 396 89" data-background-color="#0023ff" preserveAspectRatio="xMidYMid meet" height="224" width="1000" xmlns="http://www.w3.org/2000/svg" xmlns:xlink="http://www.w3.org/1999/xlink"><g id="tight-bounds" transform="matrix(1,0,0,1,0.2400000000000091,-0.24595953305990292)"><svg viewBox="0 0 395.52 89.49164003268741" height="89.49164003268741" width="395.52"><g><svg viewBox="0 0 541.9113290460218 122.61461768967892" height="89.49164003268741" width="395.52"><g transform="matrix(1,0,0,1,146.39132904602178,36.12822313055374)"><svg viewBox="0 0 395.52 50.35817142857144" height="50.35817142857144" width="395.52"><g id="textblocktransform"><svg viewBox="0 0 395.52 50.35817142857144" height="50.35817142857144" width="395.52" id="textblock"><g><svg viewBox="0 0 395.52 50.35817142857144" height="50.35817142857144" width="395.52"><g transform="matrix(1,0,0,1,0,0)"><svg width="395.52" viewBox="5 -35.04999923706055 279.9800109863281 35.64999771118164" height="50.35817142857144" data-palette-color="#f8fafc"><g class="wordmark-text-0" data-fill-palette-color="primary" id="text-0"><path d="M14.05-34.45Q20.45-34.45 23.95-31.78 27.45-29.1 27.45-23.8L27.45-23.8Q27.45-18.15 23.8-15.4 20.15-12.65 14.1-12.65L14.1-12.65 9.75-12.65 9.75 0 5 0 5-34.45 14.05-34.45ZM13.9-16.4Q18.05-16.4 20.23-18 22.4-19.6 22.4-23.75L22.4-23.75Q22.4-27.45 20.23-29.1 18.05-30.75 14-30.75L14-30.75 9.75-30.75 9.75-16.4 13.9-16.4ZM52.4 0L44.15-14.6 38.8-14.6 38.8 0 34.05 0 34.05-34.45 43.1-34.45Q49.55-34.45 52.87-32 56.2-29.55 56.2-24.7L56.2-24.7Q56.2-21.1 54.35-18.85 52.5-16.6 48.75-15.45L48.75-15.45 58.05 0 52.4 0ZM38.8-18.25L43.6-18.25Q47.35-18.25 49.25-19.78 51.15-21.3 51.15-24.7L51.15-24.7Q51.15-27.9 49.22-29.33 47.3-30.75 43.05-30.75L43.05-30.75 38.8-30.75 38.8-18.25ZM76.59-35.05Q80.95-35.05 84.22-32.98 87.5-30.9 89.32-26.9 91.15-22.9 91.15-17.2L91.15-17.2Q91.15-11.6 89.32-7.6 87.5-3.6 84.22-1.5 80.95 0.6 76.59 0.6L76.59 0.6Q72.25 0.6 68.97-1.45 65.7-3.5 63.87-7.5 62.05-11.5 62.05-17.15L62.05-17.15Q62.05-22.7 63.87-26.75 65.7-30.8 69-32.93 72.3-35.05 76.59-35.05L76.59-35.05ZM76.59-31.15Q72.09-31.15 69.59-27.75 67.09-24.35 67.09-17.15L67.09-17.15Q67.09-10 69.62-6.65 72.15-3.3 76.59-3.3L76.59-3.3Q86.09-3.3 86.09-17.2L86.09-17.2Q86.09-31.15 76.59-31.15L76.59-31.15ZM94.64-34.45L119.24-34.45 118.74-30.4 109.19-30.4 109.19 0 104.44 0 104.44-30.4 94.64-30.4 94.64-34.45ZM137.04-35.05Q141.39-35.05 144.67-32.98 147.94-30.9 149.77-26.9 151.59-22.9 151.59-17.2L151.59-17.2Q151.59-11.6 149.77-7.6 147.94-3.6 144.67-1.5 141.39 0.6 137.04 0.6L137.04 0.6Q132.69 0.6 129.42-1.45 126.14-3.5 124.32-7.5 122.49-11.5 122.49-17.15L122.49-17.15Q122.49-22.7 124.32-26.75 126.14-30.8 129.44-32.93 132.74-35.05 137.04-35.05L137.04-35.05ZM137.04-31.15Q132.54-31.15 130.04-27.75 127.54-24.35 127.54-17.15L127.54-17.15Q127.54-10 130.06-6.65 132.59-3.3 137.04-3.3L137.04-3.3Q146.54-3.3 146.54-17.2L146.54-17.2Q146.54-31.15 137.04-31.15L137.04-31.15ZM164.09 0L159.34 0 159.34-34.45 177.64-34.45 177.09-30.65 164.09-30.65 164.09-18.9 175.34-18.9 175.34-15.15 164.09-15.15 164.09 0ZM196.19-35.05Q200.54-35.05 203.81-32.98 207.09-30.9 208.91-26.9 210.74-22.9 210.74-17.2L210.74-17.2Q210.74-11.6 208.91-7.6 207.09-3.6 203.81-1.5 200.54 0.6 196.19 0.6L196.19 0.6Q191.84 0.6 188.56-1.45 185.29-3.5 183.46-7.5 181.64-11.5 181.64-17.15L181.64-17.15Q181.64-22.7 183.46-26.75 185.29-30.8 188.59-32.93 191.89-35.05 196.19-35.05L196.19-35.05ZM196.19-31.15Q191.69-31.15 189.19-27.75 186.69-24.35 186.69-17.15L186.69-17.15Q186.69-10 189.21-6.65 191.74-3.3 196.19-3.3L196.19-3.3Q205.69-3.3 205.69-17.2L205.69-17.2Q205.69-31.15 196.19-31.15L196.19-31.15ZM218.48-34.45L223.23-34.45 223.23-4.15 237.38-4.15 236.83 0 218.48 0 218.48-34.45ZM243.38-34.45L248.13-34.45 248.13 0 243.38 0 243.38-34.45ZM270.43-35.05Q274.78-35.05 278.05-32.98 281.33-30.9 283.15-26.9 284.98-22.9 284.98-17.2L284.98-17.2Q284.98-11.6 283.15-7.6 281.33-3.6 278.05-1.5 274.78 0.6 270.43 0.6L270.43 0.6Q266.08 0.6 262.8-1.45 259.53-3.5 257.7-7.5 255.88-11.5 255.88-17.15L255.88-17.15Q255.88-22.7 257.7-26.75 259.53-30.8 262.83-32.93 266.13-35.05 270.43-35.05L270.43-35.05ZM270.43-31.15Q265.93-31.15 263.43-27.75 260.93-24.35 260.93-17.15L260.93-17.15Q260.93-10 263.45-6.65 265.98-3.3 270.43-3.3L270.43-3.3Q279.93-3.3 279.93-17.2L279.93-17.2Q279.93-31.15 270.43-31.15L270.43-31.15Z" fill="#f8fafc" data-fill-palette-color="primary"></path></g></svg></g></svg></g></svg></g></svg></g><g><svg viewBox="0 0 122.61461768967892 122.61461768967892" height="122.61461768967892" width="122.61461768967892"><g><svg></svg></g><g id="icon-0"><svg viewBox="0 0 122.61461768967892 122.61461768967892" height="122.61461768967892" width="122.61461768967892"><g><path d="M0 61.307c0-33.859 27.448-61.307 61.307-61.307 33.859 0 61.307 27.448 61.308 61.307 0 33.859-27.448 61.307-61.308 61.308-33.859 0-61.307-27.448-61.307-61.308zM61.307 118.073c31.351 0 56.766-25.415 56.766-56.766 0-31.351-25.415-56.766-56.766-56.766-31.351 0-56.766 25.415-56.766 56.766 0 31.351 25.415 56.766 56.766 56.766z" data-fill-palette-color="accent" fill="#f8fafc" stroke="transparent"></path></g><g transform="matrix(1,0,0,1,25.828882056466504,31.938546074837898)"><svg viewBox="0 0 70.95685357674591 58.737525540003126" height="58.737525540003126" width="70.95685357674591"><g><svg xmlns="http://www.w3.org/2000/svg" xmlns:xlink="http://www.w3.org/1999/xlink" version="1.1" x="0" y="0" viewBox="14.5 154.5999755859375 582 481.7750244140625" enable-background="new 0 0 612 792" xml:space="preserve" height="58.737525540003126" width="70.95685357674591" class="icon-s-0" data-fill-palette-color="accent" id="s-0"><path fill-rule="evenodd" clip-rule="evenodd" fill="#f8fafc" d="M526.3 350.8v172.1c0 151.3-250.9 151.3-250.9 0V300.9c0-90.8-130.4-90.8-130.4 0v139.3c40.7 12.8 70.2 50.8 70.2 95.7 0 55.4-44.9 100.3-100.3 100.3S14.5 591.4 14.5 536c0-44.9 29.5-82.9 70.2-95.7V290.8c0-181.6 250.9-181.6 250.9 0 0 10.1 0 221.9 0 221.9 0 80.7 130.4 80.7 130.4 0v-162c-40.7-12.8-70.2-50.8-70.2-95.7 0-55.4 44.9-100.3 100.3-100.3S596.5 199.6 596.5 255C596.5 299.9 567 338 526.3 350.8z" data-fill-palette-color="accent"></path></svg></g></svg></g></svg></g></svg></g></svg></g><defs></defs></svg><rect width="395.52" height="89.49164003268741" fill="none" stroke="none" visibility="hidden"></rect></g></svg></g></svg>